<svg id="Layer_1" data-name="Layer 1" xmlns="http://www.w3.org/2000/svg" width="438" height="102" viewBox="0 0 437.74 102.36"><defs><style>.cls-1{fill:#bcbec0;}.cls-2{fill:#222;}.cls-3{fill:#ae132a;}.cls-4{fill:#b32025;}.cls-5{fill:#231f20;}</style></defs><title>PrecollegeStudies</title><rect class="cls-1" x="129.74" width="1.3" height="102.36"/><path class="cls-2" d="M171.58,29.57a6.71,6.71,0,0,0-3.9-1.21c-3.1,0-5.17,2.14-5.17,5.67s2.09,5.79,5.22,5.79a6.93,6.93,0,0,0,4-1.39l.32,1.94a8.64,8.64,0,0,1-4.4,1.18c-4.17,0-7.13-2.89-7.13-7.43s3-7.49,7.13-7.49a9,9,0,0,1,4.51,1.18Z" transform="translate(-0.21 -0.36)"/><path class="cls-2" d="M179.16,41.55c-3,0-5-2.19-5-5.56s2.14-5.58,5.15-5.58,5,2.21,5,5.58S182.1,41.55,179.16,41.55Zm0-9.45c-2.08,0-3.22,1.61-3.22,3.87s1.21,3.9,3.26,3.9,3.21-1.6,3.21-3.85S181.24,32.1,179.19,32.1Z" transform="translate(-0.21 -0.36)"/><path class="cls-2" d="M189.39,41.21h-1.86V30.73l1.86-.3v1.85a3.32,3.32,0,0,1,2.92-1.85,3.78,3.78,0,0,1,2,.53l-.48,1.75a3.23,3.23,0,0,0-1.66-.48c-1,0-2,.73-2.74,2.17Z" transform="translate(-0.21 -0.36)"/><path class="cls-2" d="M203.66,41.21V34.65c0-1.8-.69-2.42-2.17-2.42a4.18,4.18,0,0,0-2.73,1.14v7.84h-1.87V30.73l1.87-.3V32a4.94,4.94,0,0,1,3.39-1.58c2.12,0,3.37,1.35,3.37,3.6v7.18Z" transform="translate(-0.21 -0.36)"/><path class="cls-2" d="M210.56,36.31A3.39,3.39,0,0,0,214,39.82a5.79,5.79,0,0,0,3.12-.87l.34,1.74a6.91,6.91,0,0,1-3.51.86,5.12,5.12,0,0,1-5.28-5.44c0-3.38,2.23-5.68,5.15-5.68a3.72,3.72,0,0,1,4,4.08,6.48,6.48,0,0,1-.22,1.66l-7,0Zm5.44-1.5v-.16c0-1.55-.72-2.58-2.36-2.58a3,3,0,0,0-3,2.78Z" transform="translate(-0.21 -0.36)"/><path class="cls-2" d="M221,41.21V25.85l1.87-.29V41.21Z" transform="translate(-0.21 -0.36)"/><path class="cls-2" d="M226.76,41.21V25.85l1.87-.29V41.21Z" transform="translate(-0.21 -0.36)"/><path class="cls-3" d="M244.85,37.22c0-.95-1-1.27-2.92-1.8-2.07-.57-4.58-1.52-4.58-4.37,0-2.64,1.94-4.4,5.47-4.4a10.73,10.73,0,0,1,5.33,1.26l-.7,3a10.63,10.63,0,0,0-4.61-1.25c-1.25,0-1.86.43-1.86,1.2,0,.94,1.29,1.3,3,1.78,2.19.59,4.47,1.6,4.47,4.31s-2.1,4.62-5.83,4.62a11.7,11.7,0,0,1-5.49-1.3l.68-3a10.59,10.59,0,0,0,4.87,1.32C244,38.57,244.85,38.09,244.85,37.22Z" transform="translate(-0.21 -0.36)"/><path class="cls-3" d="M262.42,30.73a7.13,7.13,0,0,0-3.6-1c-2.47,0-4.06,1.67-4.06,4.36s1.5,4.42,4.08,4.42a6.83,6.83,0,0,0,3.76-1.17l.75,3.22a10.8,10.8,0,0,1-4.67,1c-4.56,0-7.56-2.62-7.56-7.4,0-4.6,3-7.52,7.67-7.52a11,11,0,0,1,4.72,1.07Z" transform="translate(-0.21 -0.36)"/><path class="cls-3" d="M266.58,41.21V27H277v2.92h-6.86v2.73h5.51v2.89h-5.51v2.78H277v2.92Z" transform="translate(-0.21 -0.36)"/><path class="cls-4" d="M39.29,78.7a57.32,57.32,0,0,0,11.83,7.12l.42.17.43-.17A57.72,57.72,0,0,0,63.71,78.7c7.8-6.08,11.92-13,11.92-20.13V26.34H27.29V58.05C27.29,65.34,31.41,72.53,39.29,78.7Zm11.05-9.94a2.61,2.61,0,0,0-.85-.17H49.4c-1.2,0-2,.09-3,.17a31.15,31.15,0,0,1-3.25.17H41.52V53.85h2.4c.77,0,1.63-.08,2.57-.17.51-.09,1.11-.09,1.71-.17a7.49,7.49,0,0,1,1.89.08c.08,0,.17.09.25.09Zm23-10.19c0,13.19-16.2,22.11-21,24.51v-12l.25-.26a1.06,1.06,0,0,1,.86-.43c1.11,0,2,.09,2.91.17a32,32,0,0,0,3.35.17H63V66.28h1.88v-2.4H63V59.51h1.88v-2.4H63V52.22H58.91c-.68,0-1.45-.08-2.39-.17C56,52,55.4,52,54.8,51.88a8.42,8.42,0,0,0-2.48.09h-.09V47.25h21Zm-21,10.28V53.68c.08-.09.25-.09.42-.17a8.81,8.81,0,0,1,2-.09c.6.09,1.2.09,1.71.17.94.09,1.8.18,2.57.18h2.4V68.93H59.77a31.15,31.15,0,0,1-3.25-.17c-1-.08-1.8-.17-3-.17C53,68.68,52.66,68.76,52.32,68.85ZM29.61,28.66h43.7V45H29.61Zm0,18.59H50.43v4.54a8.81,8.81,0,0,0-2.31-.08c-.6.08-1.2.08-1.72.17-.94.09-1.71.17-2.4.17H39.89v4.37H37.83v2.4h2.06v4.37H37.83v2.4h2.06v4.89h.77a23.7,23.7,0,0,0,2.57,0,33,33,0,0,0,3.34-.17,26.79,26.79,0,0,1,2.83-.18.81.81,0,0,1,.77.43l.09.09V82.73c-4.89-2.23-20.65-11-20.65-24.68Z" transform="translate(-0.21 -0.36)"/><path class="cls-4" d="M47.86,30.28H35.6v8.23a3.55,3.55,0,0,0,1.89,2.57,37.64,37.64,0,0,0,3.77,2.32l.43.25.43-.25c.08-.09,2.48-1.37,3.94-2.32,1.71-1.11,1.8-2.23,1.8-2.57V30.28ZM37.32,32h8.74v2.23H37.32Zm8.83,6.43c0,.42-.6.85-1,1.2-1,.68-2.66,1.62-3.43,2-.69-.43-2.23-1.28-3.26-2-.68-.43-1.11-1-1.11-1.29V35.85h8.74C46.15,37.23,46.15,38.25,46.15,38.43Z" transform="translate(-0.21 -0.36)"/><path class="cls-4" d="M68.6,29.94H56.17v8.49A3.55,3.55,0,0,0,58.06,41c1.54,1,3.77,2.31,3.85,2.4l.43.25.43-.25c.09-.09,2.57-1.37,4-2.4,1.8-1.2,1.8-2.23,1.8-2.57V29.94Zm-1.72,8.31c0,.43-.6,1-1,1.2-1.12.69-2.75,1.63-3.52,2.06-.77-.43-2.23-1.37-3.34-2.06-.34-.25-1.11-.77-1.11-1.28v-.43l4.28-3.09,4.71,3.18Zm-4.71-5.74L57.89,35.6v-4H67v4.11Z" transform="translate(-0.21 -0.36)"/><path class="cls-4" d="M54.54,57.11l.86.08a8.46,8.46,0,0,0,1.46.09l2.48.09V55.65l-2.48-.08c-.34,0-.77-.09-1.29-.09l-.85-.09h-.6l.08,1.72A.25.25,0,0,1,54.54,57.11Z" transform="translate(-0.21 -0.36)"/><path class="cls-4" d="M56.86,60.28c-.34,0-.77-.09-1.29-.09-.25,0-.6-.08-.85-.08h-.6v1.71h.42c.35,0,.6.09.86.09a8.4,8.4,0,0,0,1.37.08h2.57V60.28h-.68A13.51,13.51,0,0,1,56.86,60.28Z" transform="translate(-0.21 -0.36)"/><path class="cls-4" d="M56.86,65.08c-.34,0-.77-.09-1.29-.09-.25,0-.6-.08-.85-.08h-.6l.08,1.71h.43c.34,0,.6.09.86.09a8.91,8.91,0,0,0,1.37.08h.68a9.38,9.38,0,0,1,1.8.09V65.16a17.32,17.32,0,0,1-1.8-.08Z" transform="translate(-0.21 -0.36)"/><path class="cls-4" d="M46.06,57.28c.43,0,.86-.09,1.46-.09.25,0,.51-.08.85-.08h.43V55.39h-.6c-.34,0-.6.09-.85.09a7.15,7.15,0,0,1-1.29.09l-2.49.08v1.72Z" transform="translate(-0.21 -0.36)"/><path class="cls-4" d="M47.35,60.19a7.15,7.15,0,0,1-1.29.09l-2.49.08v1.72L46.06,62c.43,0,.86-.08,1.46-.08l.77-.09h.34l.09-1.71h-.6Z" transform="translate(-0.21 -0.36)"/><path class="cls-4" d="M47.35,64.91A8.52,8.52,0,0,1,46,65c-.77,0-2,.09-2.4.09v1.71c.35,0,1.63-.08,2.49-.08.43,0,.86-.09,1.46-.09l.85-.08h.35V64.82h-.6Z" transform="translate(-0.21 -0.36)"/><path class="cls-4" d="M7.92,51.79c2.15,0,3.43-1.37,3.6-3.77a12.27,12.27,0,0,0-.08-1.62v-.18H9.64l.17.35A5.55,5.55,0,0,1,10,47.94a2,2,0,0,1-2.31,1.88,2.07,2.07,0,0,1-2.15-2.14A1.92,1.92,0,0,1,6,46.4l.26-.35L4.5,45.8,4.41,46A5.7,5.7,0,0,0,4,47.6c-.17,2.48,1.2,4.11,3.69,4.19Z" transform="translate(-0.21 -0.36)"/><path class="cls-4" d="M8.27,43.4a4,4,0,0,0,1.37.17A3.37,3.37,0,0,0,13,41a3.75,3.75,0,0,0-.26-2.75,4.27,4.27,0,0,0-2.48-1.8A3.61,3.61,0,0,0,9,36.28a3.38,3.38,0,0,0-3.34,2.57C4.92,41,6,42.71,8.27,43.4Zm-1.2-4a1.5,1.5,0,0,1,1.62-1.12,4.33,4.33,0,0,1,1,.18,2.65,2.65,0,0,1,1.63,1.11,1.26,1.26,0,0,1,.08,1.11,1.51,1.51,0,0,1-1.63,1.12,3.88,3.88,0,0,1-.94-.17C7.75,41.25,6.72,40.48,7.07,39.37Z" transform="translate(-0.21 -0.36)"/><path class="cls-4" d="M15.64,33.8l-2.49-1.37.09-.17c.25-.43.43-.43.77-.35l2.48.35,1-1.8-3.26-.35h-.6a1.88,1.88,0,0,0-1-1.71,2.28,2.28,0,0,0-1-.26c-1.2,0-1.8,1.2-2.4,2.32l-.85,1.62,6.51,3.52Zm-3.86-2.32-.09.18-1.2-.6.09-.18c.26-.51.6-1,1.11-.77a.67.67,0,0,1,.35.35A1.45,1.45,0,0,1,11.78,31.48Z" transform="translate(-0.21 -0.36)"/><polygon class="cls-4" points="19.45 26.93 16.11 24.18 20.91 25.3 22.2 23.67 16.54 18.95 15.34 20.33 18.77 23.15 13.97 22.04 12.6 23.67 18.34 28.38 19.45 26.93"/><polygon class="cls-4" points="27.77 18.95 26.74 17.75 24.68 19.38 23.74 18.27 25.62 16.73 24.6 15.53 22.71 17.07 22.02 16.13 24.08 14.5 23.05 13.21 19.54 16.04 24.17 21.78 27.77 18.95"/><polygon class="cls-4" points="33.85 15.27 33.08 13.9 30.77 15.18 27.94 10.13 26.31 11.07 29.91 17.5 33.85 15.27"/><polygon class="cls-4" points="40.11 12.87 39.51 11.41 37.11 12.27 35.14 6.87 33.34 7.47 35.82 14.41 40.11 12.87"/><path class="cls-4" d="M47.77,12h.43a3.22,3.22,0,0,0,2.23-.94A2.87,2.87,0,0,0,50.94,9L50.6,4.32l-1.88.08.34,4.2c.08,1.46-.52,1.72-1,1.8h-.17c-.43,0-1-.17-1.2-1.63l-.34-4.2-1.89.18.34,4.62C45.12,11.09,46.06,12,47.77,12Z" transform="translate(-0.21 -0.36)"/><polygon class="cls-4" points="56.05 7.3 57.59 11.84 59.73 12.19 60.67 4.82 58.88 4.56 58.28 8.93 56.73 4.3 54.68 4.04 53.65 11.33 55.45 11.59 56.05 7.3"/><polygon class="cls-4" points="66.25 6.44 64.45 5.84 62.22 12.87 64.02 13.47 66.25 6.44"/><polygon class="cls-4" points="75.5 10.56 73.87 9.7 70.27 13.38 71.05 8.33 69.25 7.39 68.13 15.18 70.02 16.04 75.5 10.56"/><polygon class="cls-4" points="77.39 21.18 78.33 19.9 76.27 18.27 77.13 17.16 79.02 18.61 80.04 17.33 78.16 15.87 78.84 14.93 80.9 16.55 81.93 15.27 78.33 12.53 73.79 18.36 77.39 21.18"/><path class="cls-4" d="M80.68,24.63l2.14-1.89.09.17c.26.35.26.43.09.86L81.8,26l1.37,1.54,1.45-2.91a1,1,0,0,0,.18-.6,1.89,1.89,0,0,0,2-.34c1.63-1.38.34-2.83-.6-4L85,18.37,79.4,23.26Zm4.37-3.86.09.17a2.07,2.07,0,0,1,.51.95c0,.17-.08.25-.25.34a.35.35,0,0,1-.35.17,1.22,1.22,0,0,1-.85-.6l-.09-.17Z" transform="translate(-0.21 -0.36)"/><path class="cls-4" d="M87.54,30.54c-.34.26-.86-.17-1-.51a2.61,2.61,0,0,1-.34-1.46v-.43l-1.72.77.09.35a5.77,5.77,0,0,0,.6,1.54,2.62,2.62,0,0,0,2.23,1.54,2.12,2.12,0,0,0,1.2-.34c1.28-.77,1.11-2,.94-2.92-.09-.6-.17-1,.08-1.2a.72.72,0,0,1,.35-.08c.34,0,.6.34.68.43a2.75,2.75,0,0,1,.43,1.2l.09.34,1.54-.69v-.17A5.12,5.12,0,0,0,92,27.28a2.28,2.28,0,0,0-3.34-1,2.35,2.35,0,0,0-.94,2.82C87.8,29.94,87.88,30.37,87.54,30.54Z" transform="translate(-0.21 -0.36)"/><rect class="cls-4" x="87.8" y="34.06" width="7.37" height="1.89" transform="translate(-6.65 36.79) rotate(-22.19)"/><polygon class="cls-4" points="95.04 39.35 89.47 40.72 89.9 42.52 95.56 41.15 95.98 43.04 97.53 42.69 96.16 37.04 94.61 37.47 95.04 39.35"/><polygon class="cls-4" points="90.76 48.26 90.84 50.15 93.75 49.98 98.38 52.38 98.3 50.32 95.56 49.03 98.13 47.41 97.95 45.18 93.67 48.18 90.76 48.26"/><polygon class="cls-4" points="9.17 65.23 10.71 64.8 10.11 62.58 11.23 62.23 11.91 64.63 13.46 64.12 12.26 60.01 5.14 62.06 5.66 63.86 8.57 63 9.17 65.23"/><path class="cls-4" d="M16,71.76A3.84,3.84,0,0,0,15.72,69,3.29,3.29,0,0,0,12.64,67a4.53,4.53,0,0,0-2,.52,3.87,3.87,0,0,0-2.15,2.23,3.9,3.9,0,0,0,.26,2.74,3.44,3.44,0,0,0,3.09,2.06,4.56,4.56,0,0,0,2-.52A3.86,3.86,0,0,0,16,71.76Zm-2.91.43a2.71,2.71,0,0,1-1.38.34,1.51,1.51,0,0,1-1.45-2,2.63,2.63,0,0,1,1.37-1.37,3.64,3.64,0,0,1,1.28-.34,1.33,1.33,0,0,1,1.38.86,1.3,1.3,0,0,1,.08,1.11A2.47,2.47,0,0,1,13.07,72.19Z" transform="translate(-0.21 -0.36)"/><path class="cls-4" d="M21.12,77.5l-3.34,2.66c-.86.69-1.54.77-2.06.17a1.35,1.35,0,0,1-.25-.77,2.41,2.41,0,0,1,.85-1.2l3.34-2.66-1.2-1.45-3.68,2.91a2.65,2.65,0,0,0-1.2,2.06,3.46,3.46,0,0,0,.86,2.14,2.82,2.82,0,0,0,2.31,1.37,2.75,2.75,0,0,0,1.8-.77l3.69-3Z" transform="translate(-0.21 -0.36)"/><polygon class="cls-4" points="27.17 83.14 24.42 86.57 25.45 81.77 23.82 80.4 19.11 86.14 20.57 87.34 23.31 83.92 22.28 88.71 23.91 90.08 28.62 84.34 27.17 83.14"/><path class="cls-4" d="M32.86,87l-1.88-1-3.35,6.6,1.89,1A6.15,6.15,0,0,0,32,94.3a3.24,3.24,0,0,0,3-2.06C36.12,90,35.35,88.3,32.86,87Zm.34,4.37a1.93,1.93,0,0,1-1.79,1.2,2,2,0,0,1-.95-.26L30,92.07l1.89-3.77.43.26a2.24,2.24,0,0,1,1,1.11A2.41,2.41,0,0,1,33.2,91.39Z" transform="translate(-0.21 -0.36)"/><polygon class="cls-4" points="36.77 96.43 41.14 97.63 41.56 96.08 38.99 95.4 39.34 94.03 41.74 94.63 42.16 93.08 39.76 92.48 40.02 91.28 42.68 91.97 43.02 90.43 38.65 89.31 36.77 96.43"/><path class="cls-4" d="M47.86,91.39l-2.14-.09-.43,7.37,2.14.09H48c2.48,0,3.77-1.2,3.94-3.52a3.65,3.65,0,0,0-.77-2.74A5.21,5.21,0,0,0,47.86,91.39Zm-.09,5.83h-.51l.26-4.2H48a2,2,0,0,1,1.89,2.22A2,2,0,0,1,47.77,97.22Z" transform="translate(-0.21 -0.36)"/><path class="cls-4" d="M58.4,90.79l-1.29,7.8,2-.43.25-1.63,2.4-.51.95,1.45,2-.43-4.37-6.59Zm1.2,4.11.26-2,1,1.63Z" transform="translate(-0.21 -0.36)"/><polygon class="cls-4" points="65.22 94.28 65.9 96.08 67.62 95.4 67.02 93.69 65.22 94.28"/><path class="cls-4" d="M69,87.19l-1.89,1,3.52,6.51,1.88-1c2.49-1.37,3.09-3.08,2-5.23S71.51,85.82,69,87.19Zm3,5-.43.26-2-3.69.43-.26a1.72,1.72,0,0,1,.94-.25,2.11,2.11,0,0,1,1.8,1.11A2,2,0,0,1,72,92.16Z" transform="translate(-0.21 -0.36)"/><polygon class="cls-4" points="75.76 89.14 76.79 90.69 78.33 89.57 77.3 88.03 75.76 89.14"/><polygon class="cls-4" points="78.67 79.63 78.33 82.54 79.96 82.8 80.13 81.6 83.64 85.11 85.01 83.83 79.79 78.52 78.67 79.63"/><path class="cls-4" d="M88.91,76.13a2.17,2.17,0,0,0-2.06-.25A2.13,2.13,0,0,0,86,74.16c-1-.68-2.15-.25-3.09,1a2.11,2.11,0,0,0,.26,3.17,2.22,2.22,0,0,0,1.8.25,1.81,1.81,0,0,0,.77,1.8,1.9,1.9,0,0,0,1.28.43,2.81,2.81,0,0,0,2.15-1.28,2.86,2.86,0,0,0,.68-2.06A2.48,2.48,0,0,0,88.91,76.13Zm-3.51.52a1.57,1.57,0,0,1-.78.34.5.5,0,0,1-.34-.09c-.34-.25-.17-.68,0-.94a.49.49,0,0,1,.43-.26,1.36,1.36,0,0,1,.43.18A.69.69,0,0,1,85.4,76.65Zm2.57,2a.72.72,0,0,1-1,.18,1,1,0,0,1-.34-1c.51-.35.94-.43,1.28-.17a.46.46,0,0,1,.26.42A1.64,1.64,0,0,1,88,78.7Z" transform="translate(-0.21 -0.36)"/><path class="cls-4" d="M92.25,68.93a2.16,2.16,0,0,0-3.08.95,1.45,1.45,0,0,0-.17,1,1.41,1.41,0,0,1-.52-1.72,3.39,3.39,0,0,1,.69-.86l.25-.17-1.37-.94-.17.17a5,5,0,0,0-.94,1.29,2.7,2.7,0,0,0-.17,2.14,5.92,5.92,0,0,0,4.71,3.09,2.29,2.29,0,0,0,2.14-1.38A2.54,2.54,0,0,0,92.25,68.93Zm0,2.75a.57.57,0,0,1-.6.34,1.7,1.7,0,0,1-.6-.17,1.59,1.59,0,0,1-.68-.6c-.09-.17,0-.26,0-.43s.25-.34.6-.34a2.48,2.48,0,0,1,.68.17,1,1,0,0,1,.6.6C92.34,71.42,92.25,71.59,92.25,71.68Z" transform="translate(-0.21 -0.36)"/><path class="cls-4" d="M94.91,61.39A2.35,2.35,0,0,0,91.82,63c0,.17-.08.26-.08.34l-.86-.25.77-2.57-1.46-.43-1.28,4.28L93,65.68v-.34a6.09,6.09,0,0,1,.17-1.2c.09-.35.52-1.2,1.29-1s.69,1.2.6,1.45a3.83,3.83,0,0,1-.69,1.2l-.25.26,1.71.6.09-.17c.25-.51.51-1.11.68-1.54a3.07,3.07,0,0,0-.08-2.32A3.51,3.51,0,0,0,94.91,61.39Z" transform="translate(-0.21 -0.36)"/><path class="cls-4" d="M13.92,51.54A37.28,37.28,0,1,0,51.2,14.26,37.37,37.37,0,0,0,13.92,51.54ZM51.29,15.46a36,36,0,1,1-36,36A36,36,0,0,1,51.29,15.46Z" transform="translate(-0.21 -0.36)"/><path class="cls-4" d="M51.29.46a51.08,51.08,0,1,0,51.07,51.08A51.09,51.09,0,0,0,51.29.46Zm0,100.78A49.71,49.71,0,1,1,101,51.54,49.74,49.74,0,0,1,51.29,101.24Z" transform="translate(-0.21 -0.36)"/><path class="cls-5" d="M168.25,72.24l-2.56,0v7H161.3V56.77h7.27c6.23,0,9.29,3.13,9.29,7.52C177.86,69.47,174.29,72.21,168.25,72.24Zm0-11.8h-2.66v8.2l2.8-.07c3.35-.07,5-1.51,5-4.14S171.74,60.44,168.28,60.44Z" transform="translate(-0.21 -0.36)"/><path class="cls-5" d="M185.24,79.26H181V62.78l4.25-.61v2.7a4.77,4.77,0,0,1,4.32-2.74,5.75,5.75,0,0,1,2.95.76l-.94,3.81a4.93,4.93,0,0,0-2.37-.65c-1.48,0-2.85.94-4,3Z" transform="translate(-0.21 -0.36)"/><path class="cls-5" d="M197.69,71.88a4.63,4.63,0,0,0,5,4.54,10.26,10.26,0,0,0,5.18-1.51l.54,3.53a13,13,0,0,1-6,1.36c-5.33,0-8.85-3.38-8.85-8.67s3.6-9,8.56-9c4.4,0,6.84,2.66,6.84,6.73a10.8,10.8,0,0,1-.36,2.77l-10.87.15Zm7.24-2.62V69c0-2.23-1-3.64-3.17-3.64a4.1,4.1,0,0,0-4,4Z" transform="translate(-0.21 -0.36)"/><path class="cls-5" d="M219.72,79.8c-5.4,0-8.6-3.34-8.6-8.78s3.53-8.89,8.75-8.89a11.11,11.11,0,0,1,5.72,1.4l-.9,3.42a8.54,8.54,0,0,0-4.5-1.33c-3.06,0-4.71,2.09-4.71,5.29,0,3.39,1.9,5.37,4.71,5.37A8.52,8.52,0,0,0,224.8,75l.68,3.46A11.57,11.57,0,0,1,219.72,79.8Z" transform="translate(-0.21 -0.36)"/><path class="cls-5" d="M236,79.8c-4.86,0-8.39-3.31-8.39-8.82s3.71-8.89,8.61-8.89,8.38,3.39,8.38,8.86S240.82,79.8,236,79.8ZM236,65.51c-2.77,0-4.28,2.24-4.28,5.44s1.58,5.4,4.35,5.4,4.25-2.16,4.25-5.37S238.77,65.51,236,65.51Z" transform="translate(-0.21 -0.36)"/><path class="cls-5" d="M248.13,79.26v-24l4.25-.58V79.26Z" transform="translate(-0.21 -0.36)"/><path class="cls-5" d="M256.91,79.26v-24l4.25-.58V79.26Z" transform="translate(-0.21 -0.36)"/><path class="cls-5" d="M268.9,71.88a4.63,4.63,0,0,0,5,4.54,10.26,10.26,0,0,0,5.18-1.51l.54,3.53a13,13,0,0,1-6,1.36c-5.33,0-8.86-3.38-8.86-8.67s3.6-9,8.57-9c4.39,0,6.84,2.66,6.84,6.73a10.8,10.8,0,0,1-.36,2.77l-10.87.15Zm7.23-2.62V69c0-2.23-1-3.64-3.16-3.64a4.09,4.09,0,0,0-4,4Z" transform="translate(-0.21 -0.36)"/><path class="cls-5" d="M282.72,77.07c0-1.51,1.23-2.88,3.06-3.49a5.61,5.61,0,0,1-3-5.12c0-3.41,2.7-6.33,7.31-6.33a12,12,0,0,1,4.68,1l4.46-.39.18,3.71L296.22,66a4.67,4.67,0,0,1,.76,2.59c0,3.38-2.85,6-7,6a9,9,0,0,1-2.27-.28c-.57.21-1.29.75-1.29,1.44,0,.9.75,1.29,3.42,1.29h1.72c4.76,0,7.46,1.33,7.46,4.57,0,3.93-4.43,6.63-9.69,6.63-4.39,0-7.88-1.62-7.88-4.61,0-1.73,1.26-3.28,3.74-3.67A3.3,3.3,0,0,1,282.72,77.07Zm2.63,5.69c0,1.54,1.91,2.62,4.72,2.62s5.14-1.08,5.14-2.8c0-1.55-1.51-1.91-4.6-1.91-1.05,0-2.49-.07-3.17-.15C286.25,81,285.35,81.75,285.35,82.76Zm4.75-11c1.91,0,3-1.37,3-3.45s-1-3.35-3.17-3.35c-1.87,0-3.06,1.4-3.06,3.49A3,3,0,0,0,290.1,71.81Z" transform="translate(-0.21 -0.36)"/><path class="cls-5" d="M304.94,71.88a4.62,4.62,0,0,0,5,4.54,10.3,10.3,0,0,0,5.19-1.51l.54,3.53a13.08,13.08,0,0,1-6,1.36c-5.32,0-8.85-3.38-8.85-8.67s3.6-9,8.57-9c4.39,0,6.84,2.66,6.84,6.73a11.26,11.26,0,0,1-.36,2.77l-10.87.15Zm7.23-2.62V69c0-2.23-1-3.64-3.17-3.64a4.1,4.1,0,0,0-4,4Z" transform="translate(-0.21 -0.36)"/><path class="cls-5" d="M339.17,73.11c0-1.87-1.69-2.56-5-3.46s-7-2.34-7-6.76c0-4,3.06-6.66,8.07-6.66a15.26,15.26,0,0,1,7.74,2l-1.08,3.7A13.76,13.76,0,0,0,335.28,60c-2.62,0-3.78,1.12-3.78,2.66,0,1.84,2,2.56,5.11,3.39,3.39.93,6.88,2.48,6.88,6.76,0,4.11-3.28,7-8.57,7a16.17,16.17,0,0,1-8.1-2.08l1-3.78A13.74,13.74,0,0,0,335,76.1C337.44,76.1,339.17,74.91,339.17,73.11Z" transform="translate(-0.21 -0.36)"/><path class="cls-5" d="M353.07,79.8c-3.71,0-5.65-1.62-5.51-5.61l.25-7.81-2.59-.29.11-2.7,2.59-.83.07-3.67h4.1L352,62.78h4.68l-.11,3.49h-4.82l-.22,7.67a2,2,0,0,0,2.2,2.26,8.2,8.2,0,0,0,2.59-.5l.58,3.46A11.27,11.27,0,0,1,353.07,79.8Z" transform="translate(-0.21 -0.36)"/><path class="cls-5" d="M364.19,62.67V72.78c0,2.45,1,3.24,2.81,3.24a5.39,5.39,0,0,0,3.63-1.44V62.67h4.25V79.16l-4.25.57V77.28a7.57,7.57,0,0,1-5.47,2.52c-3.24,0-5.22-2.16-5.22-5.72V62.67Z" transform="translate(-0.21 -0.36)"/><path class="cls-5" d="M390.36,55.22l4.25-.58V79.26h-4.25V77.64a6.68,6.68,0,0,1-4.68,2.16c-4.39,0-7.23-3.56-7.23-8.71s3.67-9,8.38-9a12.6,12.6,0,0,1,3.53.54Zm-3.13,10.29c-2.84,0-4.46,2.34-4.46,5.4,0,3.24,1.62,5.29,4.17,5.29a4.8,4.8,0,0,0,3.42-1.36V66.49A5.1,5.1,0,0,0,387.23,65.51Z" transform="translate(-0.21 -0.36)"/><path class="cls-5" d="M401.27,59.65a2.56,2.56,0,1,1,0-5.12,2.56,2.56,0,1,1,0,5.12Zm-2.12,19.61V62.78l4.24-.61V79.26Z" transform="translate(-0.21 -0.36)"/><path class="cls-5" d="M411.13,71.88a4.63,4.63,0,0,0,5,4.54,10.26,10.26,0,0,0,5.18-1.51l.54,3.53a13,13,0,0,1-6,1.36c-5.32,0-8.85-3.38-8.85-8.67s3.6-9,8.56-9c4.4,0,6.84,2.66,6.84,6.73a10.8,10.8,0,0,1-.36,2.77l-10.87.15Zm7.24-2.62V69c0-2.23-1-3.64-3.17-3.64a4.1,4.1,0,0,0-4,4Z" transform="translate(-0.21 -0.36)"/><path class="cls-5" d="M431,79.84a14.34,14.34,0,0,1-6.44-1.55l.93-3.31a12.05,12.05,0,0,0,5.62,1.55c1.65,0,2.73-.69,2.73-1.84s-1.4-1.76-3.34-2.23c-3.13-.72-5.62-2-5.62-5.15s2.63-5.18,6.62-5.18a14.66,14.66,0,0,1,6,1.33l-.93,3.31a13,13,0,0,0-5.22-1.36c-1.55,0-2.49.57-2.49,1.65,0,1.26,1.41,1.69,3.35,2.16,3.17.76,5.65,2,5.65,5.22S435.29,79.84,431,79.84Z" transform="translate(-0.21 -0.36)"/></svg>